<svg version="1.2" xmlns="http://www.w3.org/2000/svg" viewBox="0 0 1545 311" width="1545" height="311">
	<title>bnbnbnb-svg</title>
	<style>
		.s0 { fill: #f0b90b } 
	</style>
	<path id="Layer" fill-rule="evenodd" class="s0" d="m70.1 155.5l-34.9 34.9-35.2-34.9 35.2-35.2zm25.2-24.9l-35.2-35.3 95.2-95.3 95.3 95-35.2 35.2-60.1-60.1zm215.7 24.9l-35.2 35.3-35.2-35.3 34.9-35.2zm-95.5 24.9l35.2 35.2-95.3 95.4-95.3-95.4 35.2-35.2 60.1 60.4zm-60.1 10.1l-35.1-35 35.1-35.2 35.2 34.9-35.2 35.3zm370.1 3.6c0 31-25.1 46.8-63.7 46.5h-81v-170.4h79.2c34.6 0 56.1 17.3 56.1 44v0.6c0 19.2-10.3 30.1-22.4 36.8 19.7 7.6 31.8 19.1 31.8 41.9zm-46.7-73.5c0-11.2-8.8-17.6-24.5-17.6h-37.1v36.1h34.6c16.7 0 27-5.1 27-17.9zm9.4 68.4c0-11.6-8.5-18.6-27.6-18.6h-43.4v37.4h44.6c16.4 0 26.4-5.8 26.4-18.5zm115.9 51.6h-37.6v-170.4h37.6zm169.6 0.3l-82.5-108.4v108.1h-37v-170.4h34.5l79.8 105.1v-105.1h37v170.7zm200 0l-15.5-38.3h-71.9l-15.5 38.3h-38.5l73.1-171.6h34.6l73.1 171.6zm-51.3-126.6l-22.8 55.2h45.2zm237.6 126.7l-82.5-108.4v108.1h-37.1v-170.4h34.6l79.8 105.1v-105.1h37v170.7zm155.4 2.4c-50.1 0-87.4-38.9-87.4-87.8v-0.6c0-48.3 36.7-88.1 88.9-88.1 32.1 0 51.2 11 67 26.5l-24 27.6c-13.3-11.8-26.7-19.1-43.6-19.1-28.9 0-49.5 24-49.5 53.1v0.9c0 29.2 20.3 53.5 49.5 53.5 19.7 0 31.5-7.9 44.9-20l23.9 23.9c-17.6 18.9-37 30.4-69.7 30.1zm229.6-2.7h-129.5v-170.4h128.3v33.4h-91.3v34.6h80.3v33.4h-80.3v35.9h92.5z"/>
</svg>